<?xml version="1.0" encoding="utf-8"?>
<!-- Generator: Adobe Illustrator 26.5.0, SVG Export Plug-In . SVG Version: 6.00 Build 0)  -->
<svg version="1.1" id="Layer_1" xmlns="http://www.w3.org/2000/svg" xmlns:xlink="http://www.w3.org/1999/xlink" x="0px" y="0px"
	 viewBox="0 0 568.99 610.89" style="enable-background:new 0 0 568.99 610.89;" xml:space="preserve">
<style type="text/css">
	.st0{fill:#211E1F;}
	.st1{fill:url(#SVGID_1_);}
	.st2{fill:url(#SVGID_00000016073192560618675360000007793674703366314889_);}
	.st3{fill:#221F1F;stroke:#221F1F;stroke-width:3.2606;stroke-miterlimit:10;}
</style>
<g>
	<g>
		<g>
			<path class="st0" d="M121.01,122.53c0.58-0.76,1.15-1.5,1.7-2.21c1.97-2.32,3.68-4.34,5.15-6.06c2.94-3.44,5.11-5.52,6.16-6.73
				c2.18-2.34,0.54-0.63-4.2,4.38c-2.09,2.38-4.85,5.53-7.97,9.42c-1.86,2.36-3.68,4.75-5.44,7.19
				C117.9,126.5,119.44,124.51,121.01,122.53z"/>
			<path class="st0" d="M496.06,344.9c0.5-1.28,0.92-2.39,1.21-3.26c0.26-0.84,0.42-1.47,0.46-1.83c0.08-0.72-0.31-0.35-1.32,1.53
				c-1.72,3.16-3.47,6.36-5.23,9.58c-1.89,3.15-3.79,6.32-5.71,9.5c-10.23,17.24-23.4,33.57-38.86,47.52
				c-1.9,1.78-3.83,3.53-5.86,5.17c-2.01,1.66-3.98,3.36-6.01,4.99c-4.16,3.14-8.24,6.37-12.57,9.25
				c-4.21,3.05-8.68,5.69-13.03,8.48c-4.5,2.53-8.89,5.25-13.49,7.53c-13.25,6.46-28.14,12.7-43.68,17.21
				c-1.65,0.45-3.8,0.88-6.14,1.45c-2.35,0.52-4.88,1.2-7.44,1.58c-2.55,0.43-5.06,0.83-7.29,1.11c-2.23,0.26-4.2,0.28-5.61,0.21
				c12.01-1.74,23.86-4.46,35.41-8.1c11.52-3.73,22.72-8.38,33.46-13.91c10.73-5.54,21.05-11.87,30.67-19.13
				c9.63-7.25,18.64-15.28,26.93-23.98c-2,1.76-3.95,2.93-6.52,5.67c0.37-0.95,0.73-1.89,0.73-1.89s-0.89,0.82-2.24,2.06
				c-1.34,1.23-3.11,2.91-5.01,4.43c1.19-1.22,3.12-3.19,5.27-5.39c2.18-2.17,4.61-4.53,6.53-6.7c3.96-4.24,6.54-7.11,3.33-4.12
				c-15.08,15.08-31.86,28.57-50.61,39.61c-3.27,1.68-6.54,3.39-9.92,4.86c1.56-0.61,3.16-1.16,4.74-1.84
				c-3.42,1.85-6.93,3.68-10.44,5.47c-3.66,1.62-7.38,3.1-11.12,4.51c-2.44,0.66-4.83,1.31-7.2,1.95c-2.64,0.6-5.27,1.2-7.96,1.81
				c-2.66,0.67-5.45,1.1-8.32,1.67c-1.44,0.28-2.9,0.57-4.41,0.86c-1.52,0.24-3.08,0.48-4.69,0.73c-8.62,1.62-17.6,2.62-26.72,3.41
				c-4.58,0.23-9.17,0.63-13.81,0.6c-4.63,0.16-9.29-0.01-13.96-0.15c-9.32-0.48-18.68-1.32-27.83-3.04
				c-9.18-1.52-18.13-3.89-26.75-6.62c-24.73-8-48.08-20.56-68.63-36.73c-20.54-16.19-38.17-36.22-51.55-58.91
				c-13.4-22.67-22.56-47.98-26.51-74.2c-3.98-26.21-2.71-53.3,4.04-79.14c0.59-2.57,2.01-6.55,3.29-11.03
				c0.69-2.22,1.56-4.5,2.31-6.78c0.38-1.14,0.75-2.27,1.12-3.38c0.41-1.09,0.81-2.16,1.19-3.18
				c-13.21,31.04-17.74,65.17-13.91,98.19c1.92,16.52,5.99,32.72,11.74,48.28c5.94,15.48,13.63,30.29,22.94,44.01
				c37.23,55.07,101.43,90.95,169.85,94.25c27.91,1.67,56.75-2.48,83.66-11.82c-35.26,12.86-73.67,16.43-110.38,10.32
				c-41.34-6.81-80.5-25.57-111.3-53.43c-30.89-27.75-53.17-64.65-63.15-104.49c-2.59-9.93-4.26-20.08-5.24-30.26
				c-0.59-5.08-0.7-10.2-0.93-15.3c0.03-5.11-0.02-10.21,0.37-15.3c1.15-20.36,5.62-40.44,12.99-59.31
				c1.88-4.84,3.99-9.61,6.26-14.3c-0.09,0.5-0.23,1.1-0.47,1.84c-0.56,1.86-1.36,4.44-2.43,7.31c1.1-2.46,2.08-4.96,3.26-7.39
				c1.2-2.41,2.4-4.84,3.61-7.28c11.56-22.05,27.41-42.46,46.95-59.27c-8.58,6.96-16.55,14.63-23.83,22.94
				c15.04-18.06,33.03-33.63,52.87-45.45c6.4-4.09,15.6-8.35,25.03-11.86c4.69-1.83,9.51-3.29,13.99-4.75
				c2.26-0.65,4.45-1.29,6.53-1.88c2.07-0.63,4.02-1.22,5.86-1.68c32.92-9.13,69.25-8.85,102.61-0.16
				c16.74,4.2,32.71,10.69,47.6,18.35c14.92,7.66,28.57,16.93,40.9,27.02c6.09,5.41,11.65,11.39,17.06,17.46
				c-5.86-7.61-13.42-15.11-20.12-20.92c-0.77-0.72-1.47-1.34-1.93-1.86c-2.21-1.62-3.3-2.41-4.4-3.21
				c-8.54-7.59-19.86-15.63-33.4-22.63c-13.52-7.01-29.21-13.05-45.96-16.83c-33.48-8.05-70.67-6.46-100.9,1.55
				c-4.38,0.97-8.64,2.37-12.94,3.59c-2.13,0.68-4.23,1.45-6.34,2.16l-3.17,1.09l-3.11,1.23c-8.37,3.11-16.35,7.08-24.21,11.22
				c2.59-1.72,5.96-3.85,9.57-6.04c3.7-1.99,7.56-4.25,11.32-5.72c8.93-3.8,18.43-6.83,28.13-9.27c4.84-1.29,9.78-2.2,14.71-3.16
				c4.96-0.74,9.92-1.61,14.9-2.01c4.97-0.61,9.94-0.77,14.87-1.07c4.93-0.02,9.84-0.24,14.67,0.03c9.68,0.2,19.08,1.23,28.04,2.51
				c-2.21-0.55-4.45-0.89-6.67-1.3c-2.22-0.38-4.43-0.86-6.66-1.16c-4.46-0.56-8.91-1.29-13.44-1.56
				c-9.04-0.86-18.34-0.82-28.11-0.04c-9.69,0.62-21.94,4.24-30.77,6.1c-23.11,5.22-42.74,14.4-60.43,25.52
				c-8.86,5.59-17.12,11.91-25.15,18.72c-8.05,6.81-15.72,14.32-23.14,22.66c-3.08,3.33-5.43,5.1-8.12,8.68
				c15.61-20.82,33.97-37.77,54.84-51.11c20.86-13.3,44.3-23.13,70.44-28.12c4.19-0.77,8.01-1.17,11.64-1.58
				c3.62-0.5,7.13-0.59,10.7-0.87c3.73-0.55,7.35-0.68,10.78-0.98c3.43-0.24,6.68-0.18,9.69-0.22c16.15,0.34,28.72,1.97,39.45,3.72
				c10.72,1.78,19.67,3.65,28.39,6.15c2.18,0.63,4.37,1.21,6.55,1.9c2.16,0.75,4.35,1.51,6.58,2.28c1.11,0.4,2.24,0.8,3.38,1.21
				c1.12,0.47,2.25,0.94,3.4,1.42c2.29,0.98,4.67,1.95,7.1,3.09c9.64,4.61,20.47,10.8,32.84,20.6
				c-11.43-8.92-27.97-18.15-44.38-24.24c-16.42-6.15-32.43-9.24-42-10.54c9.08,1.88,20.41,4.65,32.6,9.03
				c12.2,4.35,25.21,10.34,37.64,17.78c12.44,7.43,24.25,16.35,34.39,25.8c10.15,9.44,18.7,19.31,25.09,28.28
				c7.82,10.92,12.53,19.33,16.26,25.97c1.76,3.38,3.29,6.31,4.69,8.99c1.31,2.73,2.5,5.22,3.67,7.66c1.23,2.42,2.18,4.9,3.33,7.49
				c0.56,1.3,1.13,2.65,1.74,4.06c0.54,1.44,1.1,2.94,1.7,4.54c0.58,1.6,1.25,3.29,1.87,5.13c0.58,1.85,1.19,3.82,1.86,5.95
				c0.33,1.07,0.66,2.17,1.02,3.31c0.3,1.16,0.6,2.36,0.92,3.61c0.59,2.5,1.41,5.15,1.93,8.08c1.02,5.04,3.98,18.29,5.08,33.33
				c0.13,1.88,0.34,3.78,0.4,5.69l0.16,5.76c0.19,3.85-0.03,7.67-0.1,11.37c-0.3,7.39-1,14.27-1.88,19.68
				c3.39-18.15,3.69-34.25,2.74-47.9c-0.96-13.68-3.17-24.94-5.01-34.19c-3.57-14.71-9.01-30.03-16-44.35
				c-7.05-14.29-15.6-27.53-24.38-38.66c-8.75-11.17-17.71-20.2-25.02-26.93c-7.4-6.65-13.15-11-15.61-13.06
				c-1.29-0.96-1.76-1.35-1.28-1.08c0.49,0.26,1.91,1.2,4.3,3.04c2.42,1.81,5.92,4.38,10.31,8.21c1.11,0.95,2.31,1.92,3.54,3.02
				c1.2,1.12,2.47,2.31,3.82,3.56c1.33,1.27,2.8,2.54,4.21,4c1.42,1.46,2.91,3,4.47,4.6c6.12,6.53,13.18,14.53,20.25,24.8
				c7.1,10.22,14.45,22.57,20.98,37.55c3.11,7.54,6.31,15.62,8.8,24.48c1.41,4.39,2.4,9.02,3.6,13.74c0.51,2.38,0.95,4.81,1.44,7.27
				c0.52,2.45,0.91,4.96,1.25,7.51c1.59,10.17,2.39,21.03,2.27,32.46c-0.11,11.43-1.1,23.46-3.38,35.89
				c0.23-1.19,0.75-3.89,1.48-7.71c0.4-1.91,0.69-4.12,1-6.57c0.29-2.45,0.75-5.12,0.97-8c1.21-11.49,1.43-26.1,0-40.39
				c-1.38-14.3-4.31-28.21-7.37-38.59c-0.65-2.63-1.53-4.97-2.17-7.12c-0.7-2.13-1.23-4.04-1.81-5.61
				c-1.14-3.14-1.84-5.14-1.95-5.63c-0.02-0.39,0.92,1.78,2.58,5.89c1.48,4.16,3.69,10.27,5.71,17.87
				c4.25,15.12,7.57,36.28,7.19,57.53c-0.03,10.62-1.2,21.21-2.74,31c-0.43,2.44-0.86,4.84-1.27,7.19c-0.46,2.34-1.04,4.6-1.53,6.81
				c-0.93,4.44-2.2,8.51-3.26,12.29c-2.28,7.5-4.43,13.59-6.09,17.63c-1.6,4.07-2.4,6.21-2.15,5.78c0.5-0.86,1.49-2.85,2.84-5.7
				c0.66-1.43,1.47-3.06,2.25-4.92c0.74-1.87,1.56-3.93,2.43-6.14c3.41-8.86,7.11-20.45,9.41-32.63c2.42-12.15,3.63-24.79,3.9-35.34
				c0.15-10.55-0.42-18.98-0.87-22.9c-0.46-2.91-0.88-5.59-1.23-7.78c-0.43-2.17-0.92-3.83-1.49-4.68
				c-3.32-20.38-8.77-36.37-17.75-55.86c-12-24.61-28.67-46.34-48.53-64.85c-19.89-18.52-42.97-33.87-68.84-46.11
				c-2.23-0.94-6.27-2.52-10.54-3.77c-4.29-1.19-8.64-2.54-11.46-3.14c-9.86-3.14-19.96-5.44-30.15-7.44
				c-10.23-1.82-20.59-2.99-31.04-3.54c-10.45-0.36-20.97-0.12-31.47,0.98c-10.48,1.22-20.91,3.17-31.16,6.02
				c-12.59,3.48-25.28,7.72-37.53,13.13c-12.24,5.4-24.03,11.98-34.62,19.78c-12.53,9.37-24.16,19.96-34.56,31.72
				c-10.37,11.78-19.53,24.68-27.26,38.48c-15.4,27.57-25.3,58.87-27.31,91.48c1.03-0.96,1.14,3.85,1.17,9.78
				c0.1,2.97,0.13,6.22,0.15,9.18c0.14,2.96,0.26,5.63,0.34,7.42c1.23,16.68,4.48,33.04,9.35,48.69
				c4.86,15.66,11.33,30.62,19.16,44.56c15.76,27.84,36.87,51.46,60.43,69.54c11.87,8.77,24.26,16.18,37.28,22.5
				c13.02,6.3,26.7,11.53,41.35,15.56c29.6,7.98,58.61,10.09,86.76,7.07c28.12-3.08,55.58-11.33,81.33-25.85
				c16.47-9.52,31.74-20.69,45.51-34.06c7-6.57,13.42-13.86,19.7-21.47c3-3.92,6.15-7.79,8.95-11.99c1.41-2.08,2.95-4.11,4.28-6.28
				c1.35-2.16,2.71-4.33,4.08-6.52c2.06-3.17,3.82-6.79,5.57-10.11C493.78,350.73,495.02,347.44,496.06,344.9z M85.11,194.3
				c0.31-1.08,0.6-2.08,0.87-2.99c0.52-1.82,0.92-3.26,1.13-4.19c3.1-9.9,6.64-19.04,10.62-27.17c3.8-8.21,8.05-15.37,11.98-21.69
				c4.31-6.78,8.48-12.37,12.15-16.93c18.17-23.07,40.91-42,66.24-55.28c27.83-14.87,58.59-22.96,89.15-24.6
				c-11.2,1.06-24.23,2.92-38.23,6.41c-13.99,3.47-28.94,8.58-43.81,15.66c-14.91,6.98-29.52,16.31-43.04,27.24
				c-11.52,9.38-22,20.19-31.17,31.77c-1.41,1.84-2.94,3.83-4.6,6c-14.64,20.6-25.67,44.16-32.13,69.26
				C84.57,196.56,84.85,195.39,85.11,194.3z M283.62,464.35c-5.93-0.23-11.79-0.91-17.62-1.57c-2.9-0.46-5.79-0.92-8.67-1.37
				c-2.89-0.43-5.71-1.15-8.56-1.71c-11.32-2.54-22.41-5.72-32.99-9.99c-17.47-7.11-33.49-16.56-48.14-27.46
				c-14.65-10.94-27.62-23.8-39.14-37.88c-22.69-28.45-39.17-62.63-46.28-101.52c2.5,15.09,6.26,28.63,10.65,41.15
				c4.41,12.52,9.53,24.02,15.47,34.88c-12.69-21.2-21.39-44.46-26.04-68.46c-0.75-3.06-1.5-6.07-1.95-9.06
				c-0.46-2.98-1.07-5.87-1.26-8.7c-0.22-2.28-0.44-4.55-0.66-6.82c-0.22-2.27-0.25-4.55-0.39-6.83
				c-0.1-12.98,1.03-25.36,3.14-37.87c2.57-15.95,6.93-31.39,12.98-45.99c6.12-14.58,13.85-28.33,23.03-40.94
				c18.27-25.31,42.73-45.77,70.74-59.79c-21.4,11.37-40.65,26.52-56.58,44.57c-7.96,9.03-15.14,18.74-21.32,29.07
				c-6.16,10.34-11.4,21.23-15.66,32.49c-17.37,45.03-16.9,96.35,0.02,142c8.49,22.82,21,44.23,36.79,63.04
				c15.73,18.88,34.99,34.88,56.37,47.46c10.68,6.33,21.96,11.69,33.63,16.08c11.67,4.41,23.74,7.88,36.06,10.3
				c24.65,4.81,50.28,5.23,75.4,1.29C316.76,463.87,300.33,465.18,283.62,464.35z"/>
			<path class="st0" d="M223.32,63.45c9.19-3.05,18.58-5.51,28.02-7.29c9.46-1.61,18.92-2.61,28.21-2.85
				c-8.45-0.2-18.46,0.36-28.59,1.84c-10.12,1.56-20.28,4.1-29.17,6.91c-24.9,8.28-48.08,21.5-67.61,38.37
				C174.24,84.16,197.57,71.64,223.32,63.45z"/>
		</g>
		<g>
			<g>
				<g>
					<linearGradient id="SVGID_1_" gradientUnits="userSpaceOnUse" x1="121.4537" y1="94.1901" x2="393.926" y2="370.5">
						<stop  offset="0" style="stop-color:#19412C"/>
						<stop  offset="0.5175" style="stop-color:#327D58"/>
						<stop  offset="0.9785" style="stop-color:#7B9F85"/>
					</linearGradient>
					<path class="st1" d="M423.04,288.86c9.84,26.1,15.7,46.4,52.1,50.97c36.39,4.57,77.05-15.39,78.78-14.3
						c-57.38,30.39-98.01,23.29-145.93,6.18c7.09-2.3,13.69-1.74,19.8-6.92c-6.95,0.55-12.91,0.04-18.26,1.7
						c-7.21,2.23-13.64,1.71-20.15-2.05c-2.04-1.18-4.22-2.08-6.96-3.41c3.41-2.72,6.87-3.43,10.32-4.12
						c5.56-1.12,10.97-2.64,15.72-6.1c1.53-1.12,2.95-2.42,4.74-3.92c-2.12-2.04-3.71-1.16-5.31-0.69
						c-9.87,2.91-19.76,5.78-29.63,8.7c-3.72,1.1-7.21,0.82-10.64-1.42c-3.48-2.27-7.13-4.23-11.58-6.84
						c19.99-12.58,40.42-21.37,61.8-28.95C419.75,281.76,421.66,285.19,423.04,288.86z M382.1,240.02
						c10.01,5.59,19.49,11.77,26.42,21.69c2.34,3.35,4.42,6.9,6.98,10.93c-23.07,7.46-44.97,15.95-64.94,30.65
						c-3.78-2.52-7.72-5.15-12.09-8.07c5.6-5.75,11.51-10.13,17.97-13.38c10.5-5.27,21.24-9.99,31.87-14.95
						c1.59-0.74,3.32-1.3,4.67-2.4c1.97-1.61,1.5-4.03-0.88-4.73c-1.23-0.37-2.73-0.36-3.94,0.05
						c-17.62,6.03-34.43,13.85-49.11,26.2c-1.82,1.53-3.32,3.48-5.5,5.79c-6.51-5-13.11-10.08-20.29-15.59
						c2.93-2.69,5.13-4.98,7.57-6.91c15.04-11.88,31.34-21.38,48.19-29.9C373.62,237.07,377.54,237.48,382.1,240.02z M372.21,224.54
						c0.39,2.03,0.56,4.11,0.77,5.76c-23.12,11.31-44.93,24-64.15,42.12c-4.23-3.71-8.6-7.55-13.31-11.68
						c21.23-22.58,47.52-33.41,75-42.91C371.22,220.55,371.83,222.52,372.21,224.54z M344.41,162.12
						c7.36,11.47,15.91,22.12,20.86,35.22c1.74,4.61,2.96,9.45,4.49,14.42c-30.18,7.7-57.21,20.29-79.37,43.43
						c-3.52-3.03-7.12-6.14-11.48-9.9c9.8-7.03,18.67-14.01,28.09-19.97c9.39-5.94,19.33-10.86,28.92-16.69
						c-3.04-0.45-5.89,0.26-8.73,1.2c-8.92,2.96-17.42,6.96-25.33,12.28c-8.84,5.95-17.53,12.17-26.92,18.72
						c-1.94-2.01-4.3-4.44-7.21-7.46c12.83-11.37,25.4-22.51,38.8-32.65c13.51-10.22,28.56-17.05,43.46-24.43
						c-5.55-2.31-10.34-0.29-15.08,1.05c-8.46,2.39-16.35,6.34-23.71,11.5c-13.33,9.35-26.48,18.92-37.2,31.81
						c-2.71,3.26-5.31,6.63-8.4,10.51c-4.23-4.7-8.41-9.34-13.06-14.51c3.73-4.44,6.91-8.98,10.76-12.68
						c20.58-19.8,43.66-35.13,70.03-44.39c0.74-0.26,1.52-0.38,2.23-0.7C339.39,157.1,342.04,158.44,344.41,162.12z M324.01,141.24
						c1.52,1.64,3.11,3.24,4.83,4.61c1.73,1.37,3.66,2.44,5.5,3.64c-0.26,0.55-0.52,1.1-0.78,1.65c-1.51,0.65-3.01,1.36-4.54,1.96
						c-24.79,9.72-47.35,23.48-66.56,43.09c-4.7,4.8-8.47,10.66-13.16,16.66c-3.03-3.66-6.13-7.4-9.74-11.76
						c2.76-5.64,4.95-11.53,8.23-16.57c15.08-23.14,35.41-38.64,60.35-47.17c0.55-0.19,1.11-0.38,1.68-0.47
						C319.86,135.25,316.92,133.62,324.01,141.24z M293.09,117.45c5.96,3.07,12.21,5.51,17.66,10.69
						c-32.87,12.68-60.94,30.92-75.58,68.68c-0.66-3.35-1.3-5.45-1.46-7.58c-0.85-11.18,1.01-21.85,5.5-31.84
						c8.86-19.74,22.62-33.62,42.07-40.6C285.37,115.32,289.11,115.4,293.09,117.45z M228.47,144.07c0.75-4.7,3.22-9.59,6.14-13.23
						c9.58-11.93,21.4-19.47,37.2-18.77c-0.65,2.8-2.88,2.98-4.34,3.92c-21.09,13.55-34.4,33.03-38.47,59.58
						c-0.4,2.61-0.48,5.28-0.71,7.92C226.71,170.28,226.39,157.06,228.47,144.07z M143.43,203.7
						c13.46-12.33,28.81-20.08,46.89-20.49c6.2-0.14,12.42-0.08,18.6-0.5c4.75-0.33,7.58,2.18,10.24,6.91
						c-35.69,3.98-66.35,18.87-92.49,44.7C129.61,222.34,134.69,211.71,143.43,203.7z M123.32,263.14
						c-1.06-6.15-0.26-12.38,4.01-17.69c5.36-6.68,11.06-12.85,17.7-17.99c18.47-14.29,38.95-23.79,61.12-29.19
						c5.47-1.33,10.99-2.44,16.78-3.72c4.84,6.08,9.65,12.14,14.65,18.42c-43,14.98-78.85,40-103.95,81.26
						C129.02,284.59,125.22,274.14,123.32,263.14z M139.62,306.31c-0.55-1.06-0.33-2.97,0.15-4.21c1.55-4.04,3.01-8.21,5.17-11.86
						c7.05-11.96,16.51-21.57,26.64-30.37c18.5-16.08,39.04-28.44,61.06-38.02c2.51-1.09,5-2.23,7.5-3.32
						c0.35-0.15,0.76-0.15,1.85-0.35c2.54,2.99,5,5.88,7.83,9.2c-17.32,4.66-30.96,14.84-44.16,25.75
						c-14.66,12.11-27.64,26.14-39.31,41.58c-6.49,8.59-12.01,17.86-16.18,28.82C145.63,317.98,142.63,312.12,139.62,306.31z
						 M196.85,372.38c-16.96-10.05-30.61-24.06-42.41-41.57c3.22-6.59,5.94-13.6,9.77-19.78c19.79-31.92,45.69-56.5,77.26-74.09
						c2.05-1.14,4.22-2.06,6.37-2.99c1.78-0.77,3.61-1.4,5.86-2.27c2.07,2.28,3.83,4.22,6.06,6.68c-1.87,1.07-3.3,1.93-4.76,2.73
						c-13.76,7.52-25.58,17.95-37.09,28.83c-9.64,9.11-18.31,19.21-25.99,30.32c-6.07,8.78-10.97,18.26-14.05,28.75
						c-1.15,3.92-1.63,8.07-1.35,12.51c0.6-0.96,1.4-1.83,1.78-2.88c8.68-23.97,23.01-43.49,40.32-60.64
						c12.56-12.44,25.61-24.21,40.14-33.94c1.13-0.76,2.29-1.47,3.62-2.32c0.99,0.8,1.96,1.47,2.81,2.29
						c0.86,0.83,1.62,1.8,2.65,2.96C229.47,278.72,209.02,322.35,196.85,372.38z M280.53,327.78c-3.71,17.83-1.78,35.57,2.19,53.72
						c-26.92,11.98-53.35,10.81-80.07-4.72c0.57-3.64,0.96-7.34,1.74-10.93c3.86-17.71,10.46-34.22,18.29-50.2
						c11.18-22.83,25.6-42.88,43.32-60.14c1.58-1.54,3.22-2.99,5.41-5.01c4.62,4.49,8.96,8.71,13.6,13.21
						c-1.39,1.58-2.45,3.01-3.71,4.19c-11.45,10.72-19.59,24.16-26.68,38.45c-2.47,4.98-4.94,9.97-7.38,14.98
						c-3.47,7.13-5.6,14.71-6.12,22.82c-0.19,2.94-0.15,5.76,2.69,8.73c7.64-33.31,23.25-60.96,45.05-85.48
						c4.63,4.05,9.09,7.95,14.01,12.25C290.97,293.59,284.25,309.93,280.53,327.78z M322.91,405c-10.7-2.65-20.52-6.99-28.38-16.44
						c-4.42-5.31-6.25-10.93-7.22-17.34c-4.44-29.36,0.12-56.64,15.38-81.37c1.28-2.07,2.71-4.03,4.41-6.54
						c7.21,5.53,14.15,10.85,21.39,16.4c-0.86,1.74-1.65,3.34-2.45,4.93c-10.11,20.03-14.41,41.09-8.77,63.86
						c0.46,1.86,1.39,3.6,2.41,6.18c2.79-3.25,2.17-6.19,2.18-9c0.02-9.04-0.47-18.16,0.33-27.11c1.02-11.39,5.07-21.95,9.47-32.27
						c0.39-0.91,1-1.71,1.83-3.1c4.12,2.74,8.02,5.33,11.32,7.52c-11.72,30.76-14.5,61.16-1.5,92.96
						C336.39,405.43,329.59,406.66,322.91,405z M367.37,393.07c-4.17,4.26-10.4,5.9-16.99,8.77c-1.48-3.99-3.1-7.76-4.3-11.67
						c-5.1-16.65-4.79-33.59-2.48-50.58c0.79-5.8,1.73-11.59,2.86-17.32c0.55-2.78,1.67-5.42,2.72-8.71
						c4.97,2.93,9.36,5.52,13.22,7.81C361.94,345.56,365.59,368.82,367.37,393.07z M553.93,325.53
						c-7.04,15.41-51.64,30.58-70.55,32.73c-18.91,2.15-46.6-0.9-59.83,1.13c-5.65,0.86-11.34,2.9-16.47,5.6
						c-11.29,5.94-22.03,13-31.92,21.44c-0.43,0.36-0.98,0.56-2.12,1.19c-2.2-21.14-4.36-41.9-6.6-63.42
						c1.99,0.78,3.41,1.25,4.75,1.87c6.09,2.84,12.08,5.98,18.27,8.5c3.31,1.35,5.07,3.16,5.54,7.06
						c0.74,6.05,1.92,12.06,3.03,18.05c0.35,1.9,1.09,3.73,1.93,6.5c3.99-4.54,3.13-8.99,2.72-13.15c-0.43-4.36-1.39-8.66-2.27-13.9
						c27.71,9.95,45.2,10.85,83.3,7.48S553.91,325.08,553.93,325.53z"/>
				</g>
				
					<linearGradient id="SVGID_00000093870859474088707920000002839890999491382437_" gradientUnits="userSpaceOnUse" x1="145.9257" y1="70.058" x2="418.3979" y2="346.3679">
					<stop  offset="0" style="stop-color:#19412C"/>
					<stop  offset="0.5175" style="stop-color:#327D58"/>
					<stop  offset="0.9785" style="stop-color:#7B9F85"/>
				</linearGradient>
				<path style="fill:url(#SVGID_00000093870859474088707920000002839890999491382437_);" d="M221.1,172.31
					c-0.69-1.15-1.39-2.28-2.06-3.44c-2.72-3.53-5.89-7.75-7.83-10.67c-3.98-5.98-7.88-12.04-11.65-18.17
					c-3.78-6.13-7.45-12.35-11-18.63c-3.55-6.28-6.99-12.65-10.32-19.08c-3.33-6.42-6.57-12.9-9.66-19.47
					c-3.09-6.56-6.02-13.21-8.85-19.9c-2.83-6.69-5.57-13.43-8.15-20.24c-1.46-3.83-1.26-3.88-2.64-7.75
					c-1.97,1.86-4.09,3.56-6.33,5.07c16.23,46.81,37.67,85.96,64.4,127.06c2.29,3.52,6.4,8.75,8.25,11.45
					c3.48,3.24,7.05,6.39,10.65,9.53c0.01,0,0.03,0,0.04,0C224.02,182.93,222.37,177.71,221.1,172.31z"/>
			</g>
		</g>
		<g>
			<path class="st3" d="M30.58,467.41l54.37-52.43l1.12,1.16l-7.33,75.81l41.68-40.19l5.09,5.28l-54.37,52.43l-1.16-1.2l7.1-75.03
				l-41.17,39.7L30.58,467.41z"/>
			<path class="st3" d="M134.9,486.61l5.91,3.9l-30.77,46.63l-5.91-3.9L134.9,486.61z M150.5,469.35c1.34,0.89,2.17,2.13,2.48,3.73
				c0.31,1.6,0.01,3.09-0.89,4.46c-0.89,1.34-2.13,2.19-3.72,2.53c-1.59,0.34-3.06,0.07-4.41-0.82c-1.32-0.87-2.13-2.1-2.44-3.7
				c-0.31-1.6-0.02-3.07,0.86-4.41c0.91-1.37,2.15-2.23,3.75-2.57C147.73,468.22,149.18,468.48,150.5,469.35z"/>
			<path class="st3" d="M162.46,503.24l6.54,3.08l-3.48,7.39c3.32-1.99,6.4-3.2,9.25-3.62c2.84-0.42,5.44-0.08,7.79,1.03
				c1.77,0.83,3.39,2.3,4.86,4.39l-5.92,3.91c-1.07-1.22-2.05-2.05-2.97-2.48c-2.13-1.01-4.61-1.08-7.43-0.24
				c-2.82,0.85-5.63,2.9-8.43,6.16c-2.15,2.51-5.29,8.14-9.41,16.91l-8.05,17.1l-6.54-3.08L162.46,503.24z"/>
			<path class="st3" d="M224.69,524.62c8.25,1.95,14.36,6.6,18.35,13.95c3.62,6.7,4.53,13.82,2.74,21.39
				c-1.8,7.59-5.97,13.62-12.52,18.06c-6.55,4.45-13.92,5.7-22.1,3.77c-8.21-1.94-14.25-6.37-18.11-13.28
				c-3.86-6.91-4.89-14.17-3.1-21.76c1.78-7.53,5.79-13.47,12.03-17.84C208.84,524.09,216.41,522.66,224.69,524.62z M223.04,531.46
				c-5.73-1.36-11.15-0.37-16.29,2.95c-5.13,3.32-8.42,8.03-9.86,14.13c-0.93,3.93-0.86,7.82,0.21,11.66
				c1.07,3.84,2.98,7.06,5.74,9.67c2.75,2.6,6.04,4.36,9.86,5.26c3.82,0.9,7.54,0.81,11.17-0.28c3.63-1.09,6.78-3.12,9.46-6.07
				c2.68-2.95,4.49-6.4,5.42-10.33c1.44-6.1,0.61-11.78-2.51-17.06C233.14,536.12,228.74,532.81,223.04,531.46z"/>
			<path class="st3" d="M319.08,510.57l2.97,77.37l-6.97,0.27l-0.37-9.59c-2.82,3.77-6.04,6.65-9.66,8.64
				c-3.62,1.99-7.61,3.07-11.99,3.24c-7.78,0.3-14.53-2.31-20.26-7.83c-5.73-5.52-8.75-12.38-9.06-20.59
				c-0.31-8.04,2.21-15.02,7.54-20.95c5.34-5.93,11.91-9.04,19.72-9.34c4.51-0.17,8.63,0.64,12.36,2.45
				c3.73,1.81,7.05,4.61,9.96,8.4l-1.22-31.81L319.08,510.57z M291.86,538.69c-3.94,0.15-7.53,1.27-10.78,3.37
				c-3.25,2.09-5.8,4.95-7.63,8.58c-1.83,3.63-2.67,7.42-2.52,11.39c0.15,3.93,1.29,7.65,3.41,11.16c2.12,3.51,4.9,6.2,8.32,8.07
				c3.42,1.87,7.05,2.73,10.89,2.58c3.87-0.15,7.5-1.28,10.88-3.39c3.39-2.11,5.95-4.9,7.69-8.35c1.74-3.45,2.52-7.3,2.36-11.54
				c-0.25-6.46-2.55-11.78-6.9-15.95C303.22,540.43,297.98,538.46,291.86,538.69z"/>
			<path class="st3" d="M337.19,507.64l6.76-2.09l9.33,30.17c1.6-4.51,3.77-8.18,6.49-11.01c2.72-2.83,6-4.84,9.83-6.02
				c3.93-1.21,7.73-1.28,11.4-0.19c3.67,1.09,6.76,3.12,9.26,6.09c2.51,2.97,4.89,8.1,7.14,15.39l8.49,27.47l-6.76,2.09l-7.87-25.46
				c-1.9-6.15-3.41-10.18-4.53-12.09c-1.93-3.27-4.27-5.46-7.03-6.56c-2.76-1.1-5.92-1.1-9.49,0.01c-4.09,1.26-7.33,3.77-9.71,7.52
				c-2.39,3.75-3.47,7.81-3.24,12.18c0.16,2.82,1.34,7.75,3.52,14.82l6.05,19.57l-6.76,2.09L337.19,507.64z"/>
			<path class="st3" d="M450.05,479.71l29.07,47.71l-5.96,3.63l-5-8.2c-0.63,4.67-2.03,8.76-4.22,12.25
				c-2.19,3.5-5.15,6.39-8.89,8.67c-6.65,4.05-13.82,5.06-21.51,3.03c-7.69-2.03-13.67-6.55-17.95-13.57
				c-4.18-6.87-5.39-14.19-3.62-21.97c1.77-7.78,6-13.7,12.67-17.76c3.86-2.35,7.85-3.64,11.99-3.88c4.14-0.24,8.4,0.59,12.79,2.49
				l-5.34-8.77L450.05,479.71z M428.76,499.12c-3.36,2.05-5.96,4.78-7.78,8.19c-1.82,3.41-2.65,7.15-2.48,11.21
				c0.17,4.06,1.29,7.79,3.35,11.17c2.05,3.36,4.85,6.05,8.41,8.09c3.56,2.03,7.3,3.03,11.2,3c3.9-0.03,7.49-1.05,10.77-3.05
				c3.31-2.01,5.92-4.77,7.85-8.27c1.93-3.5,2.81-7.18,2.64-11.04c-0.17-3.86-1.35-7.6-3.56-11.22c-3.36-5.52-7.96-9.04-13.8-10.57
				C439.52,495.1,433.99,495.93,428.76,499.12z"/>
		</g>
	</g>
</g>
</svg>
